<svg xmlns="http://www.w3.org/2000/svg" enable-background="new 0 0 48 48" viewBox="0 0 48 48"><path fill="#2d3e4f" d="M22 22h-5v4c0 .552.448 1 1 1h3c.552 0 1-.448 1-1V22zM43 22h-5v4c0 .552.448 1 1 1h3c.552 0 1-.448 1-1V22z"/><path fill="#03a9f4" d="M42.88,15.669l-3.401-9.352C39.191,5.526,38.44,5,37.599,5H22.401c-0.841,0-1.592,0.526-1.88,1.317
	l-3.401,9.352c-0.08,0.219-0.12,0.45-0.12,0.683V23c0,1.105,0.895,2,2,2h22c1.105,0,2-0.895,2-2v-6.648
	C43,16.119,42.959,15.888,42.88,15.669z"/><path fill="#37474f" d="M39.743,12.664l-1.786-5C37.815,7.266,37.438,7,37.016,7H22.984c-0.423,0-0.8,0.266-0.942,0.664
	l-1.786,5C20.024,13.315,20.507,14,21.199,14h17.603C39.493,14,39.976,13.315,39.743,12.664z"/><path fill="#1e88e5" d="M40,22H20c-0.552,0-1-0.448-1-1v-4c0-0.552,0.448-1,1-1h20c0.552,0,1,0.448,1,1v4
	C41,21.552,40.552,22,40,22z"/><circle cx="38" cy="19" r="2" fill="#e3f2fd"/><circle cx="22" cy="19" r="2" fill="#e3f2fd"/><path fill="#2d3e4f" d="M10 30H5v4c0 .552.448 1 1 1h3c.552 0 1-.448 1-1V30zM31 30h-5v4c0 .552.448 1 1 1h3c.552 0 1-.448 1-1V30z"/><path fill="#26a69a" d="M30.88,23.669l-3.401-9.352C27.191,13.526,26.44,13,25.599,13H10.401
	c-0.841,0-1.592,0.526-1.88,1.317L5.12,23.669C5.041,23.888,5,24.119,5,24.352V31c0,1.105,0.895,2,2,2h22c1.105,0,2-0.895,2-2
	v-6.648C31,24.119,30.959,23.888,30.88,23.669z"/><path fill="#37474f" d="M27.743,20.664l-1.786-5C25.815,15.266,25.438,15,25.016,15H10.984c-0.423,0-0.8,0.266-0.942,0.664
	l-1.786,5C8.024,21.315,8.507,22,9.199,22h17.603C27.493,22,27.976,21.315,27.743,20.664z"/><path fill="#00897b" d="M28,30H8c-0.552,0-1-0.448-1-1v-4c0-0.552,0.448-1,1-1h20c0.552,0,1,0.448,1,1v4
	C29,29.552,28.552,30,28,30z"/><circle cx="26" cy="27" r="2" fill="#e3f2fd"/><circle cx="10" cy="27" r="2" fill="#e3f2fd"/><path fill="#2d3e4f" d="M18 38h-5v4c0 .552.448 1 1 1h3c.552 0 1-.448 1-1V38zM39 38h-5v4c0 .552.448 1 1 1h3c.552 0 1-.448 1-1V38z"/><path fill="#ff9800" d="M38.88,31.669l-3.401-9.352C35.191,21.526,34.44,21,33.599,21H18.401
	c-0.841,0-1.592,0.526-1.88,1.317l-3.401,9.352c-0.08,0.219-0.12,0.45-0.12,0.683V39c0,1.105,0.895,2,2,2h22c1.105,0,2-0.895,2-2
	v-6.648C39,32.119,38.959,31.888,38.88,31.669z"/><path fill="#37474f" d="M35.743,28.664l-1.786-5C33.815,23.266,33.438,23,33.016,23H18.984c-0.423,0-0.8,0.266-0.942,0.664
	l-1.786,5C16.024,29.315,16.507,30,17.199,30h17.603C35.493,30,35.976,29.315,35.743,28.664z"/><path fill="#ef6c00" d="M36,38H16c-0.552,0-1-0.448-1-1v-4c0-0.552,0.448-1,1-1h20c0.552,0,1,0.448,1,1v4
	C37,37.552,36.552,38,36,38z"/><circle cx="34" cy="35" r="2" fill="#e3f2fd"/><circle cx="18" cy="35" r="2" fill="#e3f2fd"/></svg>